<?xml version="1.0" encoding="UTF-8" standalone="no"?>
<!-- Created with Inkscape (http://www.inkscape.org/) -->

<svg
   xmlns:dc="http://purl.org/dc/elements/1.1/"
   xmlns:cc="http://creativecommons.org/ns#"
   xmlns:rdf="http://www.w3.org/1999/02/22-rdf-syntax-ns#"
   xmlns:svg="http://www.w3.org/2000/svg"
   xmlns="http://www.w3.org/2000/svg"
   xmlns:sodipodi="http://sodipodi.sourceforge.net/DTD/sodipodi-0.dtd"
   xmlns:inkscape="http://www.inkscape.org/namespaces/inkscape"
   width="210mm"
   height="297mm"
   viewBox="0 0 744.09448819 1052.3622047"
   id="svg2"
   version="1.1"
   inkscape:version="0.91 r13725"
   sodipodi:docname="ic_launcher.svg">
  <defs
     id="defs4" />
  <sodipodi:namedview
     id="base"
     pagecolor="#ffffff"
     bordercolor="#666666"
     borderopacity="1.0"
     inkscape:pageopacity="0.0"
     inkscape:pageshadow="2"
     inkscape:zoom="0.24748737"
     inkscape:cx="531.88285"
     inkscape:cy="612.51683"
     inkscape:document-units="px"
     inkscape:current-layer="layer1"
     showgrid="false"
     showguides="true"
     inkscape:guide-bbox="true"
     inkscape:window-width="1920"
     inkscape:window-height="1026"
     inkscape:window-x="0"
     inkscape:window-y="25"
     inkscape:window-maximized="1" />
  <metadata
     id="metadata7">
    <rdf:RDF>
      <cc:Work
         rdf:about="">
        <dc:format>image/svg+xml</dc:format>
        <dc:type
           rdf:resource="http://purl.org/dc/dcmitype/StillImage" />
        <dc:title></dc:title>
      </cc:Work>
    </rdf:RDF>
  </metadata>
  <g
     inkscape:label="Layer 1"
     inkscape:groupmode="layer"
     id="layer1">
    <circle
       style="opacity:1;fill:#607d8b;fill-opacity:1;fill-rule:nonzero;stroke:none;stroke-width:3.24;stroke-linecap:round;stroke-linejoin:round;stroke-miterlimit:4;stroke-dasharray:none;stroke-dashoffset:0;stroke-opacity:0.80382776"
       id="path3338"
       cx="363.65491"
       cy="519.00171"
       r="226.27417" />
    <circle
       style="opacity:1;fill:#84ffff;fill-opacity:1;fill-rule:nonzero;stroke:none;stroke-width:3.24000001;stroke-linecap:round;stroke-linejoin:round;stroke-miterlimit:4;stroke-dasharray:none;stroke-dashoffset:0;stroke-opacity:0.80382774"
       id="path4154"
       cx="248.49751"
       cy="373.5397"
       r="8.0812206" />
    <circle
       style="opacity:1;fill:#84ffff;fill-opacity:1;fill-rule:nonzero;stroke:none;stroke-width:3.24000001;stroke-linecap:round;stroke-linejoin:round;stroke-miterlimit:4;stroke-dasharray:none;stroke-dashoffset:0;stroke-opacity:0.80382774"
       id="path4154-3"
       cx="233.21429"
       cy="468.43362"
       r="14.866935" />
    <circle
       style="opacity:1;fill:#84ffff;fill-opacity:1;fill-rule:nonzero;stroke:none;stroke-width:3.24000001;stroke-linecap:round;stroke-linejoin:round;stroke-miterlimit:4;stroke-dasharray:none;stroke-dashoffset:0;stroke-opacity:0.80382774"
       id="path4154-3-6"
       cx="180.71428"
       cy="509.50504"
       r="6.295506" />
    <circle
       style="opacity:1;fill:#84ffff;fill-opacity:1;fill-rule:nonzero;stroke:none;stroke-width:3.24000001;stroke-linecap:round;stroke-linejoin:round;stroke-miterlimit:4;stroke-dasharray:none;stroke-dashoffset:0;stroke-opacity:0.80382774"
       id="path4154-3-7"
       cx="390.35715"
       cy="701.29077"
       r="6.6526489" />
    <circle
       style="opacity:1;fill:#84ffff;fill-opacity:1;fill-rule:nonzero;stroke:none;stroke-width:3.24000001;stroke-linecap:round;stroke-linejoin:round;stroke-miterlimit:4;stroke-dasharray:none;stroke-dashoffset:0;stroke-opacity:0.80382774"
       id="path4154-3-7-5"
       cx="483.92859"
       cy="581.29077"
       r="7.7240777" />
    <circle
       style="opacity:1;fill:#84ffff;fill-opacity:1;fill-rule:nonzero;stroke:none;stroke-width:3.24000001;stroke-linecap:round;stroke-linejoin:round;stroke-miterlimit:4;stroke-dasharray:none;stroke-dashoffset:0;stroke-opacity:0.80382774"
       id="path4154-3-7-5-3"
       cx="219.22803"
       cy="516.74402"
       r="4.5097919" />
    <path
       style="opacity:1;fill:#a1887f;fill-opacity:1;fill-rule:nonzero;stroke:none;stroke-width:3.24000001;stroke-linecap:round;stroke-linejoin:round;stroke-miterlimit:4;stroke-dasharray:none;stroke-dashoffset:0;stroke-opacity:0.80382774"
       inkscape:transform-center-x="0.45812192"
       inkscape:transform-center-y="-7.0808518"
       d="m 346.46478,449.44368 -38.7859,17.84758 -41.77225,-5.12658 -18.86471,-42.60969 8.71201,-21.1666 19.70036,-14.17402 -23.23613,-31.00479 17.77616,-20.62572 36.75603,3.34887 34.4641,14.8494 5.87334,31.12821 20.45022,35.92281 z"
       id="path4226"
       inkscape:connector-curvature="0"
       sodipodi:nodetypes="ccccccccccccc" />
    <path
       style="opacity:1;fill:#a1887f;fill-opacity:1;fill-rule:nonzero;stroke:none;stroke-width:3.24000001;stroke-linecap:round;stroke-linejoin:round;stroke-miterlimit:4;stroke-dasharray:none;stroke-dashoffset:0;stroke-opacity:0.80382774"
       inkscape:transform-center-x="0.53577578"
       inkscape:transform-center-y="-8.2811208"
       d="m 549.89856,591.40367 -36.01428,15.03155 -15.55733,-25.85616 -13.88455,-18.87325 -8.82919,-20.30231 23.06073,-18.1522 35.73741,4.32825 18.10894,8.02035 6.86892,14.20757 -5.29005,22.15145 z"
       id="path4226-5"
       inkscape:connector-curvature="0"
       sodipodi:nodetypes="ccccccccccc" />
    <path
       style="opacity:1;fill:#a1887f;fill-opacity:1;fill-rule:nonzero;stroke:none;stroke-width:3.24000001;stroke-linecap:round;stroke-linejoin:round;stroke-miterlimit:4;stroke-dasharray:none;stroke-dashoffset:0;stroke-opacity:0.80382774"
       d="m 391.48138,351.01737 -1.60545,20.25786 -11.60084,7.2285 -16.14471,-7.55394 -8.04602,-23.87849 -1.31387,-21.19458 16.17566,-8.60171 13.34925,-0.81761 15.5619,3.47428 20.8678,20.38164 z"
       id="path4244"
       inkscape:connector-curvature="0"
       sodipodi:nodetypes="ccccccccccc" />
    <g
       id="g4313"
       transform="matrix(1.4460048,0,0,1.4460048,-194.67385,-199.8363)">
      <path
         transform="matrix(1.9440645,0,0,1.5072292,-450.60612,-232.05642)"
         d="m 493.96458,473.79734 -19.54231,-4.32229 -2.25419,19.88725 -13.26949,-14.98349 -13.51311,14.76415 -1.92816,-19.92151 -19.61049,4.00164 10.14965,-17.25018 -18.21731,-8.28937 18.35064,-7.98987 -9.86575,-17.41411 19.54231,4.32229 2.25419,-19.88725 13.26948,14.98349 13.51312,-14.76414 1.92816,19.9215 19.61048,-4.00163 -10.14965,17.25018 18.21732,8.28936 -18.35064,7.98988 z"
         inkscape:randomized="0"
         inkscape:rounded="0"
         inkscape:flatsided="false"
         sodipodi:arg2="0.95066749"
         sodipodi:arg1="0.63650822"
         sodipodi:r2="26.341246"
         sodipodi:r1="43.336605"
         sodipodi:cy="448.03845"
         sodipodi:cx="459.11432"
         sodipodi:sides="10"
         id="path4251"
         style="opacity:1;fill:#ef5350;fill-opacity:1;fill-rule:nonzero;stroke:none;stroke-width:3.24000001;stroke-linecap:round;stroke-linejoin:round;stroke-miterlimit:4;stroke-dasharray:none;stroke-dashoffset:0;stroke-opacity:0.80382774"
         sodipodi:type="star" />
      <path
         transform="matrix(1.4662047,0,0,1.1222239,-233.5659,-60.143529)"
         d="m 493.96458,473.79734 -19.54231,-4.32229 -2.25419,19.88725 -13.26949,-14.98349 -13.51311,14.76415 -1.92816,-19.92151 -19.61049,4.00164 10.14965,-17.25018 -18.21731,-8.28937 18.35064,-7.98987 -9.86575,-17.41411 19.54231,4.32229 2.25419,-19.88725 13.26948,14.98349 13.51312,-14.76414 1.92816,19.9215 19.61048,-4.00163 -10.14965,17.25018 18.21732,8.28936 -18.35064,7.98988 z"
         inkscape:randomized="0"
         inkscape:rounded="0"
         inkscape:flatsided="false"
         sodipodi:arg2="0.95066749"
         sodipodi:arg1="0.63650822"
         sodipodi:r2="26.341246"
         sodipodi:r1="43.336605"
         sodipodi:cy="448.03845"
         sodipodi:cx="459.11432"
         sodipodi:sides="10"
         id="path4251-6"
         style="opacity:1;fill:#ff7043;fill-opacity:1;fill-rule:nonzero;stroke:none;stroke-width:3.24000001;stroke-linecap:round;stroke-linejoin:round;stroke-miterlimit:4;stroke-dasharray:none;stroke-dashoffset:0;stroke-opacity:0.80382774"
         sodipodi:type="star" />
      <path
         transform="matrix(1.153031,0,0,0.90616051,-71.515912,44.581737)"
         d="m 493.96458,473.79734 -19.54231,-4.32229 -2.25419,19.88725 -13.26949,-14.98349 -13.51311,14.76415 -1.92816,-19.92151 -19.61049,4.00164 10.14965,-17.25018 -18.21731,-8.28937 18.35064,-7.98987 -9.86575,-17.41411 19.54231,4.32229 2.25419,-19.88725 13.26948,14.98349 13.51312,-14.76414 1.92816,19.9215 19.61048,-4.00163 -10.14965,17.25018 18.21732,8.28936 -18.35064,7.98988 z"
         inkscape:randomized="0"
         inkscape:rounded="0"
         inkscape:flatsided="false"
         sodipodi:arg2="0.95066749"
         sodipodi:arg1="0.63650822"
         sodipodi:r2="26.341246"
         sodipodi:r1="43.336605"
         sodipodi:cy="448.03845"
         sodipodi:cx="459.11432"
         sodipodi:sides="10"
         id="path4251-6-2"
         style="opacity:1;fill:#ffc107;fill-opacity:0;fill-rule:nonzero;stroke:none;stroke-width:3.24000001;stroke-linecap:round;stroke-linejoin:round;stroke-miterlimit:4;stroke-dasharray:none;stroke-dashoffset:0;stroke-opacity:0.80382774"
         sodipodi:type="star" />
      <path
         transform="matrix(1.1447896,0,0,0.83702023,-93.089304,64.844958)"
         d="m 493.96458,473.79734 -19.54231,-4.32229 -2.25419,19.88725 -13.26949,-14.98349 -13.51311,14.76415 -1.92816,-19.92151 -19.61049,4.00164 10.14965,-17.25018 -18.21731,-8.28937 18.35064,-7.98987 -9.86575,-17.41411 19.54231,4.32229 2.25419,-19.88725 13.26948,14.98349 13.51312,-14.76414 1.92816,19.9215 19.61048,-4.00163 -10.14965,17.25018 18.21732,8.28936 -18.35064,7.98988 z"
         inkscape:randomized="0"
         inkscape:rounded="0"
         inkscape:flatsided="false"
         sodipodi:arg2="0.95066749"
         sodipodi:arg1="0.63650822"
         sodipodi:r2="26.341246"
         sodipodi:r1="43.336605"
         sodipodi:cy="448.03845"
         sodipodi:cx="459.11432"
         sodipodi:sides="10"
         id="path4251-6-9"
         style="opacity:1;fill:#ffc107;fill-opacity:0;fill-rule:nonzero;stroke:none;stroke-width:3.24000001;stroke-linecap:round;stroke-linejoin:round;stroke-miterlimit:4;stroke-dasharray:none;stroke-dashoffset:0;stroke-opacity:0.80382774"
         sodipodi:type="star" />
      <path
         transform="matrix(0.97996139,0,0,0.75059487,-11.70001,105.7097)"
         d="m 493.96458,473.79734 -19.54231,-4.32229 -2.25419,19.88725 -13.26949,-14.98349 -13.51311,14.76415 -1.92816,-19.92151 -19.61049,4.00164 10.14965,-17.25018 -18.21731,-8.28937 18.35064,-7.98987 -9.86575,-17.41411 19.54231,4.32229 2.25419,-19.88725 13.26948,14.98349 13.51312,-14.76414 1.92816,19.9215 19.61048,-4.00163 -10.14965,17.25018 18.21732,8.28936 -18.35064,7.98988 z"
         inkscape:randomized="0"
         inkscape:rounded="0"
         inkscape:flatsided="false"
         sodipodi:arg2="0.95066749"
         sodipodi:arg1="0.63650822"
         sodipodi:r2="26.341246"
         sodipodi:r1="43.336605"
         sodipodi:cy="448.03845"
         sodipodi:cx="459.11432"
         sodipodi:sides="10"
         id="path4251-6-1"
         style="opacity:1;fill:#ffc107;fill-opacity:1;fill-rule:nonzero;stroke:none;stroke-width:3.24000001;stroke-linecap:round;stroke-linejoin:round;stroke-miterlimit:4;stroke-dasharray:none;stroke-dashoffset:0;stroke-opacity:0.80382774"
         sodipodi:type="star" />
    </g>
    <path
       style="opacity:1;fill:#bdbdbd;fill-opacity:1;fill-rule:nonzero;stroke:none;stroke-width:3.24000001;stroke-linecap:round;stroke-linejoin:round;stroke-miterlimit:4;stroke-dasharray:none;stroke-dashoffset:0;stroke-opacity:0.80382774"
       d="m 315.7229,573.85491 -43.17631,130.41675 -89.6255,-95.2542 z"
       id="rect4320"
       inkscape:connector-curvature="0"
       sodipodi:nodetypes="cccc" />
    <circle
       style="opacity:1;fill:#d50000;fill-opacity:1;fill-rule:nonzero;stroke:none;stroke-width:3.24000001;stroke-linecap:round;stroke-linejoin:round;stroke-miterlimit:4;stroke-dasharray:none;stroke-dashoffset:0;stroke-opacity:0.80382774"
       id="path4154-3-6-2"
       cx="632.61157"
       cy="144.17"
       r="8.9622602"
       transform="matrix(0.7082645,0.70594717,-0.70594717,0.7082645,0,0)" />
    <circle
       style="opacity:1;fill:#d50000;fill-opacity:1;fill-rule:nonzero;stroke:none;stroke-width:3.24000001;stroke-linecap:round;stroke-linejoin:round;stroke-miterlimit:4;stroke-dasharray:none;stroke-dashoffset:0;stroke-opacity:0.80382774"
       id="path4154-3-6-2-7"
       cx="635.72778"
       cy="97.847"
       r="8.9622602"
       transform="matrix(0.7082645,0.70594717,-0.70594717,0.7082645,0,0)" />
    <circle
       style="opacity:1;fill:#84ffff;fill-opacity:1;fill-rule:nonzero;stroke:none;stroke-width:3.24000001;stroke-linecap:round;stroke-linejoin:round;stroke-miterlimit:4;stroke-dasharray:none;stroke-dashoffset:0;stroke-opacity:0.80382774"
       id="path4154-3-7-0"
       cx="465.71429"
       cy="639.50513"
       r="3.795506" />
    <circle
       style="opacity:1;fill:#84ffff;fill-opacity:1;fill-rule:nonzero;stroke:none;stroke-width:3.24000001;stroke-linecap:round;stroke-linejoin:round;stroke-miterlimit:4;stroke-dasharray:none;stroke-dashoffset:0;stroke-opacity:0.80382774"
       id="path4154-3-7-0-9"
       cx="475.71429"
       cy="668.07654"
       r="3.795506" />
  </g>
</svg>
