<?xml version="1.0" encoding="UTF-8" standalone="no"?>
<!-- Created with Inkscape (http://www.inkscape.org/) -->
<svg
   xmlns:dc="http://purl.org/dc/elements/1.1/"
   xmlns:cc="http://creativecommons.org/ns#"
   xmlns:rdf="http://www.w3.org/1999/02/22-rdf-syntax-ns#"
   xmlns:svg="http://www.w3.org/2000/svg"
   xmlns="http://www.w3.org/2000/svg"
   xmlns:xlink="http://www.w3.org/1999/xlink"
   xmlns:sodipodi="http://sodipodi.sourceforge.net/DTD/sodipodi-0.dtd"
   xmlns:inkscape="http://www.inkscape.org/namespaces/inkscape"
   width="71.451332"
   height="37.22654"
   id="svg2"
   sodipodi:version="0.32"
   inkscape:version="0.46"
   version="1.0"
   sodipodi:docname="damageBar_4.svg"
   inkscape:output_extension="org.inkscape.output.svg.inkscape">
  <defs
     id="defs4">
    <inkscape:perspective
       sodipodi:type="inkscape:persp3d"
       inkscape:vp_x="0 : 18.61327 : 1"
       inkscape:vp_y="0 : 1000 : 0"
       inkscape:vp_z="71.451332 : 18.61327 : 1"
       inkscape:persp3d-origin="35.725666 : 12.408847 : 1"
       id="perspective46" />
    <linearGradient
       inkscape:collect="always"
       id="linearGradient3370">
      <stop
         style="stop-color:#ffffff;stop-opacity:1;"
         offset="0"
         id="stop3372" />
      <stop
         style="stop-color:#ffffff;stop-opacity:0;"
         offset="1"
         id="stop3374" />
    </linearGradient>
    <linearGradient
       id="linearGradient3170">
      <stop
         style="stop-color:#ffffff;stop-opacity:0"
         offset="0"
         id="stop3172" />
      <stop
         style="stop-color:#ffffff;stop-opacity:1;"
         offset="1"
         id="stop3174" />
    </linearGradient>
    <linearGradient
       id="linearGradient4404">
      <stop
         style="stop-color:#595959;stop-opacity:0.76288658;"
         offset="0"
         id="stop4406" />
      <stop
         style="stop-color:#ffffff;stop-opacity:0;"
         offset="1"
         id="stop4408" />
    </linearGradient>
    <linearGradient
       id="linearGradient3179">
      <stop
         id="stop3181"
         offset="0"
         style="stop-color:#54cc24;stop-opacity:1;" />
      <stop
         id="stop3183"
         offset="1"
         style="stop-color:#787878;stop-opacity:0" />
    </linearGradient>
    <linearGradient
       id="linearGradient3171">
      <stop
         style="stop-color:#787878;stop-opacity:1;"
         offset="0"
         id="stop3173" />
      <stop
         style="stop-color:#ffffff;stop-opacity:0;"
         offset="1"
         id="stop3175" />
    </linearGradient>
    <linearGradient
       id="linearGradient3154">
      <stop
         style="stop-color:#ff4c4c;stop-opacity:1;"
         offset="0"
         id="stop3156" />
      <stop
         style="stop-color:#ff0d0d;stop-opacity:0;"
         offset="1"
         id="stop3158" />
    </linearGradient>
    <radialGradient
       inkscape:collect="always"
       xlink:href="#linearGradient3154"
       id="radialGradient3168"
       gradientUnits="userSpaceOnUse"
       gradientTransform="matrix(3.5224135,0,0,2.466417,-50.270424,-45.866654)"
       cx="25.793104"
       cy="25.533155"
       fx="25.793104"
       fy="25.533155"
       r="12.500001" />
    <linearGradient
       inkscape:collect="always"
       xlink:href="#linearGradient3370"
       id="linearGradient3449"
       gradientUnits="userSpaceOnUse"
       gradientTransform="translate(7.70989,118.01102)"
       x1="29.558014"
       y1="-116.10862"
       x2="29.523932"
       y2="-104.96803" />
  </defs>
  <sodipodi:namedview
     id="base"
     pagecolor="#ffffff"
     bordercolor="#666666"
     borderopacity="1.0"
     inkscape:pageopacity="0.0"
     inkscape:pageshadow="2"
     inkscape:zoom="10.66317"
     inkscape:cx="37.564072"
     inkscape:cy="30.206856"
     inkscape:document-units="px"
     inkscape:current-layer="layer1"
     width="1cm"
     height="1cm"
     inkscape:window-width="1278"
     inkscape:window-height="808"
     inkscape:window-x="0"
     inkscape:window-y="24"
     units="cm"
     showgrid="false"
     inkscape:window-maximized="1" />
  <metadata
     id="metadata7">
    <rdf:RDF>
      <cc:Work
         rdf:about="">
        <dc:format>image/svg+xml</dc:format>
        <dc:type
           rdf:resource="http://purl.org/dc/dcmitype/StillImage" />
      </cc:Work>
    </rdf:RDF>
  </metadata>
  <g
     inkscape:groupmode="layer"
     id="layer2"
     inkscape:label="Fondo"
     style="display:inline"
     sodipodi:insensitive="true">
    <rect
       style="fill:#e7e7e7;fill-opacity:1;fill-rule:nonzero;stroke:none;stroke-width:1;stroke-linecap:round;stroke-linejoin:miter;stroke-miterlimit:4;stroke-dasharray:none;stroke-dashoffset:22.62000055;stroke-opacity:1;display:inline"
       id="rect3286"
       width="69.451332"
       height="35.226521"
       x="1"
       y="1.0000095"
       rx="5"
       ry="5" />
  </g>
  <g
     inkscape:groupmode="layer"
     id="layer5"
     inkscape:label="Estado"
     style="display:inline">
    <path
       id="path3366"
       style="fill:#dc9c00;fill-opacity:1;fill-rule:nonzero;stroke:none;stroke-width:0.1;stroke-linecap:round;stroke-linejoin:miter;stroke-miterlimit:4;stroke-dasharray:none;stroke-dashoffset:22.62000055;stroke-opacity:1"
       d="M 5.9999969,1.000012 L 65.451335,1.000012 C 68.221335,1.000012 70.451335,3.2300119 70.451335,6.000012 L 70.451335,31.226532 C 70.451335,33.996532 68.221335,36.226532 65.451335,36.226532 L 5.9999969,36.226532 C 3.2299974,36.226532 0.9999973,33.996532 0.9999973,31.226532 L 0.9999973,6.000012 C 0.9999973,3.2300119 3.2299974,1.000012 5.9999969,1.000012 z M 63.391415,1.472172 L 63.391415,35.754382 M 56.474973,1.472172 L 56.474973,35.754382 M 49.558543,1.472172 L 49.558543,35.754382 M 42.642113,1.472172 L 42.642113,35.754382 M 35.725663,1.472172 L 35.725663,35.754382 M 28.809238,1.472172 L 28.809238,35.754382 M 21.892798,1.472172 L 21.892798,35.754382 M 14.976368,1.472172 L 14.976368,35.754382 M 8.0599369,1.472172 L 8.0599369,35.754382" />
  </g>
  <g
     inkscape:label="Ciego"
     inkscape:groupmode="layer"
     id="layer1"
     transform="translate(2.8066257,65.101033)"
     style="display:inline">
    <rect
       style="fill:#e7e7e7;fill-opacity:1;fill-rule:nonzero;stroke:none;stroke-width:1;stroke-linecap:round;stroke-linejoin:miter;stroke-miterlimit:4;stroke-dasharray:none;stroke-dashoffset:22.62000055;stroke-opacity:1"
       id="rect3430"
       width="7.2497387"
       height="35.226521"
       x="-67.644707"
       y="-64.101021"
       rx="5"
       ry="5"
       transform="scale(-1,1)" />
    <rect
       style="fill:#e7e7e7;fill-opacity:1;fill-rule:nonzero;stroke:none"
       id="rect3434"
       width="37.821117"
       height="35.226521"
       x="-63.79855"
       y="-64.101021"
       transform="scale(-1,1)" />
  </g>
  <g
     inkscape:groupmode="layer"
     id="layer4"
     inkscape:label="Rejilla"
     style="display:inline"
     sodipodi:insensitive="true">
    <path
       id="path3368"
       style="fill:url(#linearGradient3449);fill-opacity:1;fill-rule:nonzero;stroke:#ffffff;stroke-width:2;stroke-linecap:round;stroke-linejoin:miter;stroke-miterlimit:4;stroke-dasharray:none;stroke-dashoffset:22.62000055;stroke-opacity:1"
       d="M 5.999998,1.0000007 L 65.451334,1.0000007 C 68.221334,1.0000007 70.451334,3.2300107 70.451334,6.0000007 L 70.451334,31.226539 C 70.451334,33.996529 68.221334,36.226539 65.451334,36.226539 L 5.999998,36.226539 C 3.229998,36.226539 0.99999805,33.996529 0.99999805,31.226539 L 0.99999805,6.0000007 C 0.99999805,3.2300107 3.229998,1.0000007 5.999998,1.0000007 z M 63.391404,1.4721607 L 63.391404,35.754379 M 56.474964,1.4721607 L 56.474964,35.754379 M 49.558534,1.4721607 L 49.558534,35.754379 M 42.642104,1.4721607 L 42.642104,35.754379 M 35.725666,1.4721607 L 35.725666,35.754379 M 28.809233,1.4721607 L 28.809233,35.754379 M 21.892799,1.4721607 L 21.892799,35.754379 M 14.976365,1.4721607 L 14.976365,35.754379 M 8.059932,1.4721607 L 8.059932,35.754379" />
    <path
       id="rect3290"
       style="fill:none;fill-opacity:0.14525141;fill-rule:nonzero;stroke:#787878;stroke-width:0.69999999;stroke-linecap:round;stroke-linejoin:miter;stroke-miterlimit:4;stroke-dasharray:none;stroke-dashoffset:22.62000055;stroke-opacity:1"
       d="M 5.999998,1.0000107 L 65.451334,1.0000107 C 68.221334,1.0000107 70.451334,3.2300007 70.451334,6.0000107 L 70.451334,31.226529 C 70.451334,33.996529 68.221334,36.226529 65.451334,36.226529 L 5.999998,36.226529 C 3.229998,36.226529 0.99999805,33.996529 0.99999805,31.226529 L 0.99999805,6.0000107 C 0.99999805,3.2300007 3.229998,1.0000107 5.999998,1.0000107 z M 63.391404,1.4721807 L 63.391404,35.754369 M 56.474964,1.4721807 L 56.474964,35.754369 M 49.558534,1.4721807 L 49.558534,35.754369 M 42.642104,1.4721807 L 42.642104,35.754369 M 35.725666,1.4721807 L 35.725666,35.754369 M 28.809233,1.4721807 L 28.809233,35.754369 M 21.892799,1.4721807 L 21.892799,35.754369 M 14.976366,1.4721807 L 14.976366,35.754369 M 8.059932,1.4721807 L 8.059932,35.754369" />
  </g>
</svg>
