<?xml version="1.0" encoding="UTF-8" standalone="no"?>
<svg
   xmlns:dc="http://purl.org/dc/elements/1.1/"
   xmlns:cc="http://creativecommons.org/ns#"
   xmlns:rdf="http://www.w3.org/1999/02/22-rdf-syntax-ns#"
   xmlns:svg="http://www.w3.org/2000/svg"
   xmlns="http://www.w3.org/2000/svg"
   xmlns:sodipodi="http://sodipodi.sourceforge.net/DTD/sodipodi-0.dtd"
   xmlns:inkscape="http://www.inkscape.org/namespaces/inkscape"
   width="48"
   height="48"
   viewBox="0 0 48 48"
   id="svg2"
   version="1.1"
   inkscape:version="0.91 r13725"
   sodipodi:docname="ic_filter_tilt_shift_48px.svg">
  <metadata
     id="metadata10">
    <rdf:RDF>
      <cc:Work
         rdf:about="">
        <dc:format>image/svg+xml</dc:format>
        <dc:type
           rdf:resource="http://purl.org/dc/dcmitype/StillImage" />
      </cc:Work>
    </rdf:RDF>
  </metadata>
  <defs
     id="defs8" />
  <sodipodi:namedview
     pagecolor="#ffffff"
     bordercolor="#666666"
     borderopacity="1"
     objecttolerance="10"
     gridtolerance="10"
     guidetolerance="10"
     inkscape:pageopacity="0"
     inkscape:pageshadow="2"
     inkscape:window-width="773"
     inkscape:window-height="480"
     id="namedview6"
     showgrid="false"
     inkscape:zoom="4.9166667"
     inkscape:cx="24"
     inkscape:cy="24"
     inkscape:window-x="238"
     inkscape:window-y="135"
     inkscape:window-maximized="0"
     inkscape:current-layer="svg2" />
  <path
     d="M22 8.14V4.1c-4.02.4-7.68 2-10.65 4.42l2.85 2.85c2.22-1.71 4.88-2.87 7.8-3.23zm14.65.38C33.69 6.1 30.02 4.5 26 4.1v4.04c2.92.37 5.58 1.52 7.8 3.24l2.85-2.86zM39.86 22h4.04c-.4-4.02-2-7.68-4.42-10.65l-2.85 2.85c1.71 2.22 2.87 4.88 3.23 7.8zm-28.48-7.8l-2.85-2.85C6.1 14.32 4.5 17.98 4.1 22h4.04c.37-2.92 1.52-5.58 3.24-7.8zM8.14 26H4.1c.4 4.02 2 7.68 4.42 10.65l2.85-2.85c-1.71-2.22-2.86-4.89-3.23-7.8zM30 24c0-3.31-2.69-6-6-6s-6 2.69-6 6 2.69 6 6 6 6-2.69 6-6zm6.62 9.79l2.85 2.85C41.9 33.68 43.5 30.02 43.9 26h-4.04c-.36 2.91-1.52 5.58-3.24 7.79zM26 39.86v4.04c4.02-.4 7.68-2 10.65-4.42l-2.85-2.85c-2.22 1.71-4.88 2.86-7.8 3.23zm-14.65-.38C14.32 41.9 17.98 43.5 22 43.9v-4.04c-2.92-.37-5.58-1.52-7.8-3.24l-2.85 2.86z"
     id="path4"
     style="fill:#f9f9f9" />
</svg>
