<?xml version="1.0" encoding="UTF-8" standalone="no"?>
<!-- Created with Inkscape (http://www.inkscape.org/) -->
<svg
   xmlns:svg="http://www.w3.org/2000/svg"
   xmlns="http://www.w3.org/2000/svg"
   xmlns:xlink="http://www.w3.org/1999/xlink"
   version="1.0"
   width="100.00191"
   height="99.929184"
   id="svg2">
  <defs
     id="defs4">
    <linearGradient
       id="linearGradient3155">
      <stop
         id="stop3157"
         style="stop-color:#1c0066;stop-opacity:0.5614754"
         offset="0" />
      <stop
         id="stop3163"
         style="stop-color:#8e79ff;stop-opacity:0.64705884"
         offset="0.5" />
      <stop
         id="stop3165"
         style="stop-color:#2a29f1;stop-opacity:0.63921571"
         offset="0.75" />
      <stop
         id="stop3167"
         style="stop-color:#010f26;stop-opacity:0.63529414"
         offset="0.97781062" />
      <stop
         id="stop3159"
         style="stop-color:#000917;stop-opacity:0.63529414"
         offset="1" />
    </linearGradient>
    <radialGradient
       cx="220"
       cy="430.93362"
       r="71.428574"
       fx="220"
       fy="430.93362"
       id="radialGradient3161"
       xlink:href="#linearGradient3155"
       gradientUnits="userSpaceOnUse"
       gradientTransform="matrix(1,0,0,0.98,0,8.6186854)" />
  </defs>
  <g
     transform="translate(-39.5,-341.50443)"
     id="layer1">
    <path
       d="M 291.42857,430.93362 A 71.428574,70 0 1 1 148.57143,430.93362 A 71.428574,70 0 1 1 291.42857,430.93362 z"
       transform="matrix(0.69886,0,0,0.7126029,-64.165866,84.302084)"
       id="path2383"
       style="opacity:1;fill:url(#radialGradient3161);fill-opacity:1;stroke:none;stroke-width:0;stroke-linecap:square;stroke-linejoin:miter;stroke-miterlimit:4;stroke-dasharray:none;stroke-dashoffset:42.50999663;stroke-opacity:1" />
    <path
       d="M 91.48501,441.26884 C 90.750708,438.38864 87.121172,437.11727 85.304614,434.74219 C 84.353782,433.49903 87.987369,433.04388 89.107935,431.94506 C 90.360761,430.71655 87.523216,428.83714 86.730858,427.28317 C 84.823669,423.54282 86.255444,425.21064 86.255444,420.75653 C 86.255444,416.19119 86.961576,417.9594 89.107935,417.9594 C 91.168064,417.9594 87.230513,414.32497 86.730858,412.36513 C 86.692312,412.21393 92.224767,415.2145 89.583349,410.03419 C 88.29512,407.50773 87.160907,404.88387 90.058763,406.30467 C 91.827192,407.17173 89.679086,399.22118 89.583349,398.84565 C 88.776153,395.67953 85.925635,394.18377 91.009593,394.18377 C 92.216477,394.18377 90.307481,391.86722 89.583349,390.92045 C 94.258024,390.92045 98.944353,392.93786 103.37038,391.85283 C 108.14226,390.683 106.12013,392.26864 102.41955,390.45426 C 100.80345,389.66189 105.25281,386.12786 106.69829,387.19094 C 110.41795,389.92654 112.08829,394.32951 113.3541,388.12331 C 113.9703,385.10209 112.20742,382.19993 115.73117,383.92761 C 118.78191,385.42338 120.00991,387.67751 120.00991,382.06286 C 120.00991,379.28787 122.61977,373.68111 122.8624,373.20527 C 123.4735,372.00677 128.71312,382.74683 129.99362,376.46859 C 130.73766,372.82061 131.02578,372.21616 134.27236,374.60384 C 134.72946,374.94001 135.22319,375.22542 135.69861,375.53622"
       id="path3177"
       style="fill:none;fill-rule:evenodd;stroke:#f2f2f2;stroke-width:0.32954553px;stroke-linecap:butt;stroke-linejoin:miter;stroke-opacity:0.47604789" />
    <path
       d="M 90.058763,390.45426 C 91.077682,391.20362 84.802497,385.21724 78.648805,381.59667 C 76.154227,380.12897 86.961017,380.16849 86.255444,377.40097 C 85.7345,375.35763 81.330564,373.50404 80.075049,372.27289 C 78.054923,370.29197 86.136977,371.45668 88.157105,369.47576 C 88.274594,369.36055 82.756528,363.8133 82.452124,363.41531 C 81.003864,361.52177 87.176917,362.03833 89.107935,360.61817 C 89.299122,360.47756 82.897421,355.3514 82.452124,355.02391 C 82.419641,355.00002 88.171532,355.03805 85.304614,352.22677 C 83.803397,350.75469 78.228154,348.03107 81.97671,348.03107 C 86.024121,348.03107 85.863939,347.72945 84.353782,344.76775 C 83.885969,343.85028 83.41285,343.22996 82.927539,342.43681"
       id="path3179"
       style="fill:none;fill-rule:evenodd;stroke:#c8c8c8;stroke-width:0.32954553px;stroke-linecap:butt;stroke-linejoin:miter;stroke-opacity:0.64970057" />
    <path
       d="M 46.795997,413.7637 C 46.473101,413.13043 58.601692,402.05103 61.058447,400.24422 C 62.590305,399.11763 64.575347,401.73545 66.288014,402.57517 C 68.332259,403.57745 64.992223,391.98075 72.468409,399.31185 C 74.463927,401.26863 77.382803,403.81139 78.17339,400.71041 C 79.152822,396.8687 79.618496,395.13464 82.927539,398.37947 C 84.751683,400.16821 83.200094,393.18305 84.353782,390.92045 C 85.215962,389.22955 89.196587,393.54372 90.058763,391.85283 C 90.217235,391.54203 90.375707,391.23124 90.534178,390.92045"
       id="path3183"
       style="fill:none;fill-rule:evenodd;stroke:#fbfbfb;stroke-width:0.32954553px;stroke-linecap:butt;stroke-linejoin:miter;stroke-opacity:0.4790419" />
    <path
       d="M 129.04279,420.75653 C 126.14174,420.02435 122.87724,417.0474 120.48533,413.7637 C 117.89974,410.21413 122.1337,410.15838 116.682,412.83132 C 113.07548,414.59959 111.5983,411.79301 112.40327,408.63562 C 113.21003,405.47125 116.23829,402.57517 111.45244,402.57517 C 107.36712,402.57517 103.62135,402.93131 100.04248,401.1766 C 96.511595,399.44542 98.889556,396.91105 100.04248,394.64996 C 100.31238,394.12063 94.628503,393.43928 93.862083,393.25139 C 92.581705,392.93751 91.503308,392.09489 90.058763,391.38663 C 89.274839,391.19446 88.474048,391.07584 87.681688,390.92045 C 85.279003,390.44923 82.995877,389.18899 80.550462,388.5895 C 77.45804,387.8314 75.732924,389.45972 73.419238,387.19094 C 71.219762,385.03415 75.788969,381.48552 70.566748,385.32618 C 67.152018,387.83753 66.11203,387.48456 63.435523,384.85999 C 62.422994,383.86711 62.960108,378.50274 62.960108,376.93478 C 62.960108,375.50027 51.368867,373.7676 49.648488,373.20527 C 43.454902,371.18081 47.943594,372.57849 46.795997,368.0772 C 46.687287,367.65079 46.162112,367.45561 45.845168,367.14481"
       id="path3189"
       style="fill:none;fill-rule:evenodd;stroke:#dedede;stroke-width:0.32954553px;stroke-linecap:butt;stroke-linejoin:miter;stroke-opacity:0.54191619" />
    <path
       d="M 117.63283,350.36202 C 117.29144,351.7011 118.66067,355.23812 117.63283,355.4901 C 114.55419,356.24482 108.12454,352.84448 108.12454,355.95629 C 108.12454,357.50657 108.86355,360.87665 111.45244,363.41531 C 114.61817,366.5196 111.69737,365.74625 108.12454,365.74625 C 103.86591,365.74625 104.37119,365.84426 106.22288,369.47576 C 107.21674,371.42492 110.61608,374.13765 107.17371,374.13765 C 99.721662,374.13765 91.323863,371.95686 91.48501,372.27289 C 93.576276,376.37426 99.922864,379.26672 99.567064,379.73191 C 99.056537,380.39941 94.65064,381.91492 93.862083,383.46142 C 92.838423,385.46901 90.125442,388.38484 90.534178,389.98807 C 92.830766,389.42506 97.267938,390.95866 99.091649,391.85283 C 102.23379,393.3934 100.36763,395.42291 104.79663,393.25139 C 108.24861,391.55889 108.2161,394.36335 109.55078,396.9809 C 111.22613,400.26658 111.90512,398.39061 115.73117,396.51471 C 118.59725,395.10948 121.54676,394.40069 122.8624,396.9809 C 124.34451,399.8876 122.83816,402.35396 127.14113,400.24422 C 129.78398,398.94844 132.21742,398.7705 134.27236,399.77803 C 135.12771,400.19741 136.44761,403.64826 136.64944,404.43992"
       id="path3191"
       style="fill:none;fill-rule:evenodd;stroke:#d5d5d5;stroke-width:0.32954553px;stroke-linecap:butt;stroke-linejoin:miter;stroke-opacity:0.56586824" />
    <path
       d="M 111.45244,435.20838 C 111.90579,433.43019 112.59227,429.79946 110.97702,428.21555 C 109.07207,426.34756 102.45974,426.75131 103.8458,424.48604 C 104.53932,423.35261 108.24914,417.61539 106.69829,416.09464 C 104.55746,413.99535 96.311422,417.81768 97.665402,415.16226 C 98.77244,412.99116 104.16993,411.28441 102.41955,409.568 C 99.167629,406.37918 92.297698,405.04157 92.43584,404.90611 C 93.703612,403.66294 97.040968,402.7491 96.239159,401.1766 C 94.531701,397.82795 92.573382,392.5011 90.534178,391.38663 C 89.769655,394.38538 83.401542,399.62448 81.501295,402.10898 C 80.400969,403.54761 77.41327,400.05989 78.648805,404.90611 C 79.36276,407.70651 80.678005,409.53392 80.075049,411.89894 C 80.043553,412.02248 73.869477,409.56306 69.140504,408.63562 C 65.456643,407.91315 72.974823,415.00516 74.370067,418.42558 C 75.563401,421.35102 72.489544,418.25155 69.615919,416.56083 C 66.750545,414.87497 63.651567,411.95191 61.533865,411.43276 C 57.934899,410.55047 63.959425,418.31136 65.337184,421.68891 C 66.749604,425.15143 67.817861,427.68954 68.665089,431.01269 C 69.251759,433.31383 65.598102,431.07665 63.435523,430.5465 C 60.932929,429.93299 62.460147,432.36311 62.960108,433.34363"
       id="path3193"
       style="fill:none;fill-rule:evenodd;stroke:#cecece;stroke-width:0.32954553px;stroke-linecap:butt;stroke-linejoin:miter;stroke-opacity:0.7005988" />
    <path
       d="M 87.206273,391.85283 C 85.706959,391.48527 80.255374,391.38663 76.747143,391.38663 C 67.551302,391.38663 66.971825,397.65144 60.583032,391.38663 C 57.444775,388.30928 59.319894,386.87105 56.779713,391.85283 C 54.518455,396.28757 51.80031,394.20819 50.123903,390.92045 C 47.841928,386.44506 49.04523,383.78854 44.418923,387.19094 C 42.737198,388.42775 41.056426,389.43077 39.664773,390.45426"
       id="path3195"
       style="fill:none;fill-rule:evenodd;stroke:#c1c1c1;stroke-width:0.32954553px;stroke-linecap:butt;stroke-linejoin:miter;stroke-opacity:0.73652697" />
    <path
       d="M 89.583349,391.85283 C 87.161273,393.63413 85.635505,387.12007 82.927539,385.79237 C 80.53352,384.61859 78.908022,389.77607 75.796315,386.72474 C 73.902513,384.8677 73.54634,380.23046 72.943823,377.86716 C 71.909115,373.80864 72.411925,372.69754 68.665089,369.94195 C 66.722275,368.51312 61.130939,367.36014 65.812599,366.21244 C 68.43971,365.5684 71.252865,365.00855 73.419238,363.41531 C 75.983153,361.52969 67.11583,362.01674 63.910937,362.01674 C 60.195838,362.01674 58.748995,362.89938 62.484694,360.15198 C 66.851297,356.94059 71.82205,356.29153 72.943823,354.09153 C 74.977623,350.10287 70.236659,350.90913 68.665089,351.2944 C 65.633608,352.03756 65.966637,350.19793 64.86177,348.03107"
       id="path3197"
       style="fill:none;fill-rule:evenodd;stroke:#dedede;stroke-width:0.32954553px;stroke-linecap:butt;stroke-linejoin:miter;stroke-opacity:0.71856289" />
  </g>
</svg>
